<svg id="Layer_1" data-name="Layer 1" xmlns="http://www.w3.org/2000/svg" viewBox="0 0 560 560">
<defs><style>.cls-1{fill:#18141c;}</style></defs>
<title>NAUKA_ICON_POSITIVE_RGB</title>
<path class="cls-1" d="M208.8,332.6,143.4,219.4a6.7,6.7,0,0,1,0-6.7L208.8,99.4a6.7,6.7,0,0,1,5.8-3.4H335.1a2.9,2.9,0,0,1,2.5,4.3l-23.3,40.4a7,7,0,0,1-5.9,3.3H240.1a2.8,2.8,0,0,0-2.5,1.5l-39.9,69.1a2.8,2.8,0,0,0,0,2.8l65.9,114.3a2.9,2.9,0,0,1-2.5,4.3H214.6A6.7,6.7,0,0,1,208.8,332.6Z"/>
<path class="cls-1" d="M222.5,459.7l23.2-40.3a6.8,6.8,0,0,1,5.9-3.4h68.3a2.9,2.9,0,0,0,2.5-1.4l39.9-69.2a2.8,2.8,0,0,0,0-2.8l-66-114.3a2.9,2.9,0,0,1,2.5-4.3h46.6a6.7,6.7,0,0,1,5.8,3.4l65.4,113.2a6.9,6.9,0,0,1,0,6.8L351.2,460.6a6.7,6.7,0,0,1-5.8,3.4H225A2.8,2.8,0,0,1,222.5,459.7Z"/>
</svg>