<svg id="Layer_1" data-name="Layer 1" xmlns="http://www.w3.org/2000/svg" viewBox="0 0 897 344">
<defs><style>.cls-1{fill:#fff;}</style></defs>
<title>NAUKA_LOGO_HORIZONTAL_NEGATIVE_RGB</title>
<path class="cls-1" d="M 314.8 132.0C 307.6 132.0 304.7 134.9 304.7 143.9V 209.5C 304.7 211.2 305.5 212.0 307.2 212.0H 319.4C 321.0 212.0 321.9 211.2 321.9 209.5V 149.8C 321.9 149.0 322.1 148.7 322.8 148.7H 323.9C 324.5 148.7 324.9 148.9 325.3 149.5L 367.5 205.3C 371.1 210.3 372.4 212.0 380.7 212.0H 390.8C 398.0 212.0 401.1 209.1 401.1 200.1V 134.5C 401.1 132.8 400.3 132.0 398.6 132.0H 386.4C 384.7 132.0 383.9 132.8 383.9 134.5V 194.2C 383.9 195.0 383.5 195.3 382.9 195.3H 381.9C 381.2 195.3 380.8 195.1 380.4 194.5L 338.4 138.7C 334.7 133.7 333.3 132.0 325.1 132.0Z"/>
<path class="cls-1" d="M 464.3 132.0C 459.5 132.0 456.0 133.7 452.3 140.7L 414.8 209.4C 414.0 211.0 414.4 212.0 416.2 212.0H 431.2C 432.7 212.0 433.2 211.7 433.8 210.6L 441.2 196.7H 496.0L 503.5 210.6C 504.0 211.7 504.7 212.0 506.1 212.0H 520.7C 522.5 212.0 522.8 211.0 522.0 209.4L 484.2 140.7C 480.4 133.7 477.0 132.0 471.1 132.0ZM 449.2 181.8 466.8 149.0C 467.2 148.5 467.5 148.2 468.1 148.2H 468.8C 469.3 148.2 469.8 148.5 470.1 149.0L 487.9 181.8Z"/>
<path class="cls-1" d="M 538.1 132.0C 536.4 132.0 535.6 132.8 535.6 134.5V 181.8C 535.6 203.8 544.4 212.0 567.6 212.0H 600.4C 623.6 212.0 632.4 203.8 632.4 181.8V 134.5C 632.4 132.8 631.6 132.0 629.9 132.0H 617.5C 615.9 132.0 614.9 132.8 614.9 134.5V 180.1C 614.9 192.2 611.6 195.8 599.9 195.8H 568.2C 556.4 195.8 553.0 192.2 553.0 180.1V 134.5C 553.0 132.8 552.2 132.0 550.5 132.0Z"/>
<path class="cls-1" d="M 654.0 132.0C 652.3 132.0 651.5 132.8 651.5 134.5V 209.5C 651.5 211.2 652.3 212.0 654.0 212.0H 666.4C 668.1 212.0 668.9 211.2 668.9 209.5V 178.7H 686.3C 693.7 178.7 696.0 179.5 698.9 183.4L 720.1 210.5C 720.9 211.7 721.6 212.0 723.4 212.0H 737.9C 739.9 212.0 740.3 209.9 739.4 209.0L 716.0 179.3C 713.1 175.7 710.4 173.0 707.3 171.1C 709.5 169.3 711.6 166.7 714.1 163.4L 736.3 134.7C 737.2 133.6 736.7 132.0 734.9 132.0H 720.7C 718.7 132.0 718.1 132.3 717.3 133.5L 697.5 159.8C 694.5 163.7 692.5 164.3 684.8 164.3H 668.9V 134.5C 668.9 132.8 668.1 132.0 666.4 132.0Z"/>
<path class="cls-1" d="M 797.0 132.0C 792.2 132.0 788.7 133.7 785.0 140.7L 747.5 209.4C 746.7 211.0 747.1 212.0 748.9 212.0H 763.9C 765.3 212.0 765.9 211.7 766.5 210.6L 773.9 196.7H 828.7L 836.2 210.6C 836.7 211.7 837.3 212.0 838.8 212.0H 853.3C 855.2 212.0 855.5 211.0 854.7 209.4L 816.9 140.7C 813.1 133.7 809.7 132.0 803.7 132.0ZM 781.9 181.8 799.5 149.0C 799.9 148.5 800.2 148.2 800.8 148.2H 801.5C 802.0 148.2 802.5 148.5 802.8 149.0L 820.5 181.8Z"/>
<path class="cls-1" d="M113.2,198.3,80.5,141.7a3.4,3.4,0,0,1,0-3.4l32.7-56.6a3.4,3.4,0,0,1,3-1.7h60.2a1.4,1.4,0,0,1,1.2,2.2L166,102.3a3.2,3.2,0,0,1-2.9,1.7H128.9a1.7,1.7,0,0,0-1.3.7l-19.9,34.6a1.2,1.2,0,0,0,0,1.4l33,57.1a1.5,1.5,0,0,1-1.3,2.2H116.2A3.4,3.4,0,0,1,113.2,198.3Z"/>
<path class="cls-1" d="M120.1,261.8l11.6-20.1a3.2,3.2,0,0,1,2.9-1.7h34.2a1.7,1.7,0,0,0,1.3-.7L190,204.7a1.2,1.2,0,0,0,0-1.4l-33-57.1a1.5,1.5,0,0,1,1.3-2.2h23.3a3.2,3.2,0,0,1,2.9,1.7l32.7,56.6a3.4,3.4,0,0,1,0,3.4l-32.7,56.6a3.4,3.4,0,0,1-3,1.7H121.3A1.4,1.4,0,0,1,120.1,261.8Z"/>
</svg>